<svg width="1032" height="855" viewBox="0 0 1032 855" fill="none" xmlns="http://www.w3.org/2000/svg">
<g id="Group">
<g id="Vector" filter="url(#filter0_d_1_4)">
<path d="M68.6745 473.673L177.708 584.701C192.936 600.206 213.587 608.917 235.12 608.917H292.52C314.054 608.917 334.705 617.628 349.932 633.134L480.69 766.285C495.916 781.791 516.567 790.502 538.1 790.503H853.832C890.341 790.503 919.938 760.363 919.938 723.183C919.938 714.342 918.228 705.587 914.905 697.42C911.583 689.252 906.713 681.83 900.574 675.579L830.428 604.148C820.657 594.199 820.657 578.068 830.426 568.117C832.749 565.751 835.507 563.874 838.543 562.594C841.578 561.313 844.831 560.654 848.117 560.654C861.934 560.654 873.135 549.247 873.135 535.176C873.135 528.419 870.5 521.938 865.807 517.16L707.203 355.652C691.976 340.146 671.325 331.435 649.791 331.435H459.434C437.9 331.435 417.249 322.724 402.022 307.218L373.398 278.07C358.171 262.565 337.52 253.854 315.987 253.854H125.053C99.2577 253.854 78.3466 275.15 78.3466 301.419C78.3466 307.666 79.5549 313.851 81.9024 319.622C84.2499 325.393 87.6906 330.637 92.0281 335.053L115.381 358.835C128.28 371.969 128.28 393.266 115.383 406.401C112.316 409.525 108.675 412.003 104.668 413.693C100.661 415.384 96.3656 416.254 92.0281 416.254C73.7874 416.254 59 431.312 59 449.888C59 454.305 59.8543 458.679 61.5143 462.76C63.1742 466.841 65.6073 470.549 68.6745 473.672V473.673Z" fill="black"/>
</g>
<path id="Vector_2" d="M68.6745 473.673L177.708 584.701C192.936 600.206 213.587 608.917 235.12 608.917H292.52C314.054 608.917 334.705 617.628 349.932 633.134L480.69 766.285C495.916 781.791 516.567 790.502 538.1 790.503H853.832C890.341 790.503 919.938 760.363 919.938 723.183C919.938 714.342 918.228 705.587 914.905 697.42C911.583 689.252 906.713 681.83 900.574 675.579L830.428 604.148C820.657 594.199 820.657 578.068 830.426 568.117C832.749 565.751 835.507 563.874 838.543 562.594C841.578 561.313 844.831 560.654 848.117 560.654C861.934 560.654 873.135 549.247 873.135 535.176C873.135 528.419 870.5 521.938 865.807 517.16L707.203 355.652C691.976 340.146 671.325 331.435 649.791 331.435H459.434C437.9 331.435 417.249 322.724 402.022 307.218L373.398 278.07C358.171 262.565 337.52 253.854 315.987 253.854H125.053C99.2577 253.854 78.3466 275.15 78.3466 301.419C78.3466 307.666 79.5549 313.851 81.9024 319.622C84.2499 325.393 87.6906 330.637 92.0281 335.053L115.381 358.835C128.28 371.969 128.28 393.266 115.383 406.401C112.316 409.525 108.675 412.003 104.668 413.693C100.661 415.384 96.3656 416.254 92.0281 416.254C73.7874 416.254 59 431.312 59 449.888C59 454.305 59.8543 458.679 61.5143 462.76C63.1742 466.841 65.6073 470.549 68.6745 473.672V473.673Z" fill="#2D314D"/>
<path id="Vector_3" fill-rule="evenodd" clip-rule="evenodd" d="M180.674 219.819L289.708 330.847C304.936 346.353 325.587 355.063 347.12 355.063H404.52C426.054 355.063 446.705 363.774 461.932 379.28L592.69 512.431C607.916 527.937 628.567 536.648 650.1 536.649H965.832C1002.34 536.649 1031.94 506.509 1031.94 469.329C1031.94 460.488 1030.23 451.734 1026.91 443.566C1023.58 435.398 1018.71 427.976 1012.57 421.725L942.428 350.294C932.657 340.345 932.657 324.214 942.426 314.263C944.749 311.897 947.507 310.02 950.543 308.74C953.578 307.459 956.832 306.8 960.117 306.8C973.934 306.8 985.135 295.393 985.135 281.322C985.135 274.565 982.5 268.084 977.807 263.306L819.203 101.798C803.976 86.292 783.325 77.581 761.791 77.5809H571.434C549.9 77.5808 529.249 68.8698 514.022 53.3639L485.398 24.2162C470.171 8.71081 449.52 7.80849e-05 427.987 0H237.053C211.258 0 190.347 21.2956 190.347 47.565C190.347 53.8115 191.555 59.9969 193.902 65.7679C196.25 71.539 199.691 76.7826 204.028 81.1994L227.381 104.981C240.28 118.115 240.28 139.412 227.383 152.547C224.316 155.671 220.675 158.149 216.668 159.839C212.661 161.53 208.366 162.4 204.028 162.4C185.787 162.4 171 177.458 171 196.034C171 200.451 171.854 204.825 173.514 208.906C175.174 212.987 177.607 216.695 180.674 219.819V219.819Z" fill="url(#paint0_linear_1_4)"/>
</g>
<defs>
<filter id="filter0_d_1_4" x="-18" y="178.854" width="1014.94" height="690.649" filterUnits="userSpaceOnUse" color-interpolation-filters="sRGB">
<feFlood flood-opacity="0" result="BackgroundImageFix"/>
<feColorMatrix in="SourceAlpha" type="matrix" values="0 0 0 0 0 0 0 0 0 0 0 0 0 0 0 0 0 0 127 0" result="hardAlpha"/>
<feOffset dy="2"/>
<feGaussianBlur stdDeviation="38.5"/>
<feColorMatrix type="matrix" values="0 0 0 0 0 0 0 0 0 0 0 0 0 0 0 0 0 0 0.0240111 0"/>
<feBlend mode="normal" in2="BackgroundImageFix" result="effect1_dropShadow_1_4"/>
<feBlend mode="normal" in="SourceGraphic" in2="effect1_dropShadow_1_4" result="shape"/>
</filter>
<linearGradient id="paint0_linear_1_4" x1="171" y1="193.982" x2="941.844" y2="536.602" gradientUnits="userSpaceOnUse">
<stop stop-color="#33D35E"/>
<stop offset="1" stop-color="#2AB6D9"/>
</linearGradient>
</defs>
</svg>
